HIERARCHY
ROOT Hips
{
  OFFSET 0 0 0
  CHANNELS 6 Xposition Yposition Zposition Zrotation Yrotation Xrotation
  JOINT LeftThigh
  {
    OFFSET 8.409438 0 -5.917753
    CHANNELS 3 Zrotation Yrotation Xrotation
    JOINT LeftLeg
    {
      OFFSET 0 0 -42.358652
      CHANNELS 3 Zrotation Yrotation Xrotation
      JOINT LeftFoot
      {
        OFFSET 0 0 -39.357303
        CHANNELS 3 Zrotation Yrotation Xrotation
      }
    }
  }
  JOINT RightThigh
  {
    OFFSET -8.409438 0 -5.917753
    CHANNELS 3 Zrotation Yrotation Xrotation
    JOINT RightLeg
    {
      OFFSET 0 0 -42.358652
      CHANNELS 3 Zrotation Yrotation Xrotation
      JOINT RightFoot
      {
        OFFSET 0 0 -39.357303
        CHANNELS 3 Zrotation Yrotation Xrotation
      }
    }
  }
  JOINT SpineLow
  {
    OFFSET 0 0 4.719101
    CHANNELS 3 Zrotation Yrotation Xrotation
    JOINT SpineMid
    {
      OFFSET 0 0 12.899191
      CHANNELS 3 Zrotation Yrotation Xrotation
      JOINT Chest
      {
        OFFSET 0 0 12.899191
        CHANNELS 3 Zrotation Yrotation Xrotation
        JOINT LeftShoulder
        {
          OFFSET 7.550562 1.41573 9.438202
          CHANNELS 3 Zrotation Yrotation Xrotation
          JOINT LeftArm
          {
            OFFSET 9.155056 0 4.247191
            CHANNELS 3 Zrotation Yrotation Xrotation
            JOINT LeftForearm
            {
              OFFSET 0 0 25.771955
              CHANNELS 3 Zrotation Yrotation Xrotation
              JOINT LeftHand
              {
                OFFSET 0 0 25.197169
                CHANNELS 3 Zrotation Yrotation Xrotation
              }
            }
          }
        }
        JOINT RightShoulder
        {
          OFFSET -7.550562 1.41573 9.438202
          CHANNELS 3 Zrotation Yrotation Xrotation
          JOINT RightArm
          {
            OFFSET -9.155056 0 4.247191
            CHANNELS 3 Zrotation Yrotation Xrotation
            JOINT RightForearm
            {
              OFFSET 0 0 -25.771955
              CHANNELS 3 Zrotation Yrotation Xrotation
              JOINT RightHand
              {
                OFFSET 0 0 -25.197169
                CHANNELS 3 Zrotation Yrotation Xrotation
              }
            }
          }
        }
        JOINT Neck
        {
          OFFSET 0 0 15.101124
          CHANNELS 3 Zrotation Yrotation Xrotation
          JOINT Head
          {
            OFFSET 0 0 11.325843
            CHANNELS 3 Zrotation Yrotation Xrotation
            End Site
            {
              OFFSET 0 0 14.157303
            }
          }
        }
      }
    }
  }
}
MOTION
Frames: 17
Frame Time: 0.0
0.0  101.685394  0.0  2.850217  30.496238  -99.250051  -1.060149  -17.495413  1.749928  -13.105637  16.012283  20.78576  1.177733  3.601899  3.270662  -21.319405  17.944079  4.987039  -10.146151  4.058689  15.015676  -4.149163  2.317498  -1.691445  -2.130206  1.397099  2.533085  -5.67544  4.033743  6.802373  -5.67544  4.033743  6.802373  -17.90049  23.523751  5.511737  88.765733  60.386623  170.608542  -25.385436  -19.922267  75.99304  66.780036  -8.377485  -19.267171  19.135462  -15.826637  14.513548  98.477004  43.235783  49.132685  17.16484  21.186973  -20.960171  93.546392  2.734294  -11.210096  -3.681848  -4.149333  -0.099803  -2.760856  -3.111532  -0.099861  
0.0  101.685394  0.0  2.882109  30.884003  -99.252647  -1.319256  -17.48199  1.719971  -13.11376  16.030302  20.792615  1.091539  3.608299  3.253407  -21.427972  17.945334  5.091525  -10.284389  4.082004  14.973993  -4.210061  2.32816  -1.689225  -2.157285  1.401831  2.54509  -5.748238  4.050422  6.833109  -5.748238  4.050422  6.833109  -17.952586  23.348069  5.393324  88.276948  59.867041  170.880555  -25.55926  -19.455658  76.351318  66.799167  -8.434031  -20.178111  19.478444  -15.841779  14.452572  98.392092  43.798395  48.865544  17.928737  20.877259  -20.446799  93.735133  2.766348  -11.430289  -3.652464  -4.130603  -0.094159  -2.738797  -3.097521  -0.095317  
0.0  101.685394  0.0  2.94993  31.435118  -99.129893  -1.709357  -17.466301  1.535774  -13.136632  16.104657  20.817767  1.013698  3.635073  3.234947  -21.774296  18.04099  5.028557  -10.581402  4.091995  14.935273  -4.13663  2.345915  -1.666207  -2.218226  1.410031  2.535347  -5.914646  4.078141  6.801926  -5.914646  4.078141  6.801925  -18.06441  23.162037  5.2775  88.003417  59.371242  171.223188  -25.720165  -18.931221  76.678526  66.827129  -8.355089  -20.836502  20.656039  -16.146313  14.591618  97.396169  44.758475  48.626734  18.821329  20.770437  -19.874679  93.865452  2.837888  -11.571542  -3.745714  -4.085094  -0.108255  -2.808819  -3.063293  -0.106237  
0.0  101.685394  0.0  2.933322  31.692551  -99.089716  -1.876037  -17.534451  1.430929  -12.974006  16.113244  20.968912  0.807185  3.668044  3.136586  -21.800609  18.014816  5.034026  -10.673662  4.056426  14.978407  -4.161575  2.368469  -1.658021  -2.251163  1.398473  2.519503  -6.006793  4.04854  6.757454  -6.006793  4.04854  6.757454  -18.019839  23.169665  5.291382  87.572303  58.969251  171.386318  -25.85025  -18.374954  76.951027  66.785052  -8.194813  -21.189844  20.909883  -16.167311  14.627594  97.177404  45.285178  48.233559  19.741023  20.823171  -19.312679  94.006613  3.01429  -11.730499  -3.659897  -4.035785  -0.058864  -2.744176  -3.026615  -0.068338  
0.0  101.685394  0.0  2.945183  32.059907  -98.925569  -2.168637  -17.569903  1.14924  -12.808442  16.15055  21.179248  0.670264  3.74274  3.043069  -22.00806  18.035239  4.880612  -11.000776  4.040383  15.011334  -3.94593  2.414427  -1.625367  -2.333006  1.407073  2.483293  -6.232014  4.076881  6.6525  -6.232014  4.076881  6.6525  -17.866263  23.064484  5.403816  87.301382  58.663374  171.524189  -26.008654  -17.812504  77.274879  66.657122  -7.993416  -21.253999  21.639018  -16.333976  14.795429  96.73936  45.968996  47.871862  20.448706  20.913837  -18.800525  94.198762  3.330117  -11.97329  -3.62577  -4.013248  -0.029392  -2.718408  -3.009887  -0.045881  
0.0  101.685394  0.0  2.85446  32.144941  -98.886406  -2.24173  -17.689001  1.021465  -12.565423  16.10228  21.43341  0.48028  3.818551  2.876143  -21.945441  17.923988  4.781791  -10.934062  3.954721  15.167478  -4.017609  2.469445  -1.61979  -2.367008  1.390533  2.46266  -6.327813  4.033192  6.595366  -6.327813  4.033192  6.595365  -17.805505  23.143854  5.452015  86.830647  58.342231  171.353707  -26.164637  -17.310595  77.591201  66.503909  -7.792769  -21.140547  21.850582  -16.362635  14.817748  96.702234  46.386763  47.554197  20.9093  21.003868  -18.499198  94.430032  3.762643  -12.311591  -3.481761  -4.002242  0.018109  -2.610139  -3.0019  -0.009258  
0.0  101.685394  0.0  2.793245  32.317684  -98.796604  -2.580201  -17.681391  0.769373  -12.232327  16.073605  21.756309  0.369045  3.879036  2.744189  -21.844299  17.853988  4.672376  -10.812442  3.839391  15.359297  -4.25777  2.469366  -1.62023  -2.416334  1.382683  2.446977  -6.464366  4.015114  6.550069  -6.464367  4.015114  6.550069  -17.992125  23.09471  5.388536  86.592323  58.012771  171.18179  -26.368494  -16.881817  77.928463  66.378356  -7.660793  -20.99192  22.182954  -16.468961  14.849638  96.627331  46.850561  47.307289  21.0211  21.038955  -18.370615  94.621443  4.234874  -12.740873  -3.453385  -4.01343  -0.005969  -2.589018  -3.010153  -0.027188  
0.0  101.685394  0.0  2.631214  32.160762  -98.866837  -2.455988  -17.833365  0.782175  -12.003254  15.928081  21.949313  0.192388  3.941348  2.601037  -21.582109  17.642585  4.575038  -10.717357  3.80316  15.578301  -4.322077  2.519828  -1.596421  -2.426303  1.357492  2.455121  -6.493419  3.948165  6.573986  -6.493419  3.948165  6.573985  -18.015685  23.17595  5.359408  86.12997  57.710135  170.867372  -26.493064  -16.553772  78.18645  66.296547  -7.633942  -20.891662  22.269423  -16.478301  14.809884  96.625007  47.276527  46.977076  21.001904  21.069746  -18.471785  94.749705  4.693477  -13.219962  -3.264829  -4.012282  -0.031598  -2.447828  -3.009145  -0.045156  
0.0  101.685394  0.0  2.516976  32.007256  -98.889055  -2.576039  -17.731968  0.640398  -11.58813  15.696444  22.330098  0.066859  3.967978  2.458755  -21.35375  17.434988  4.403892  -10.406523  3.768752  15.868067  -4.481767  2.537325  -1.594531  -2.43362  1.341406  2.480936  -6.51331  3.907509  6.645559  -6.51331  3.907509  6.645559  -18.24159  23.101191  5.210512  85.971326  57.42599  170.690504  -26.618493  -16.249127  78.467312  66.606614  -6.805001  -19.534988  22.434774  -16.528655  14.705218  96.177843  47.854829  46.361493  21.080896  21.192296  -18.598776  94.747148  5.089321  -13.692104  -3.243735  -4.020686  -0.176823  -2.432967  -3.014677  -0.15394  
0.0  101.685394  0.0  2.347216  31.565604  -99.011188  -2.179912  -17.823142  0.775055  -11.47954  15.393599  22.428091  -0.038391  4.016969  2.316292  -21.041186  17.17428  4.217174  -10.280604  3.796814  16.108953  -4.46571  2.589123  -1.557642  -2.42509  1.30937  2.515409  -6.490902  3.82262  6.743219  -6.490903  3.82262  6.74322  -18.321862  23.166003  5.031845  85.830559  57.113234  170.50774  -26.803742  -15.960599  78.690457  66.668324  -6.85997  -19.339809  22.447582  -16.492037  14.603052  95.5311  48.496954  45.507695  21.432341  21.479595  -18.819992  94.664926  5.479175  -14.114833  -2.977207  -3.995663  -0.28539  -2.233868  -2.995443  -0.233455  
0.0  101.685394  0.0  2.195978  31.049977  -99.13613  -2.007286  -17.719034  0.857626  -11.341432  15.030821  22.545742  0.110319  4.056276  2.262953  -20.850327  16.935848  3.957324  -9.942438  3.821996  16.391594  -4.492152  2.592181  -1.543337  -2.413964  1.281274  2.559384  -6.460558  3.749105  6.866624  -6.460558  3.749105  6.866624  -18.504631  23.104619  4.776144  86.153647  56.780693  170.632532  -27.035998  -15.796634  78.984064  66.867697  -6.830507  -18.970698  22.459115  -16.489315  14.534095  95.476976  49.032867  45.055411  21.42681  21.696829  -19.062973  94.539666  5.891921  -14.452792  -2.89298  -3.930399  -0.46203  -2.17186  -2.945693  -0.365027  
0.0  101.685394  0.0  2.002435  30.235561  -99.368231  -1.448768  -17.736108  1.235428  -11.1861  14.495633  22.545236  0.059391  4.099463  2.179474  -20.597357  16.683473  3.704227  -9.673266  3.87109  16.645307  -4.288088  2.652592  -1.508473  -2.387667  1.241979  2.60373  -6.389948  3.643463  6.992895  -6.389948  3.643463  6.992894  -18.5888  23.211868  4.611252  86.617823  56.460494  170.760929  -27.356199  -15.889401  79.321069  67.010291  -6.705256  -18.513983  22.415409  -16.464479  14.563042  96.665346  49.251538  45.572854  20.688556  21.784641  -19.538667  94.443979  6.357832  -14.693511  -2.549978  -3.891272  -0.548659  -1.915247  -2.916228  -0.427604  
0.0  101.685394  0.0  1.792499  29.164137  -99.645308  -0.895415  -17.692204  1.707575  -11.365292  13.972402  22.21077  0.393705  4.134542  2.272553  -20.341927  16.402396  3.42623  -9.159918  3.923332  16.893113  -4.018372  2.684872  -1.456083  -2.341714  1.210077  2.648037  -6.265049  3.555795  7.119431  -6.26505  3.555795  7.119431  -18.680622  23.326025  4.50505  87.503377  56.174528  171.049641  -27.716614  -16.049332  79.773733  67.027316  -6.491975  -18.074974  22.459417  -16.596409  14.612017  98.87831  49.048154  46.956868  19.203189  21.784988  -20.080549  94.358963  6.877706  -14.822966  -2.321371  -3.847775  -0.633629  -1.74437  -2.883478  -0.489686  
0.0  101.685394  0.0  1.538294  27.832255  -99.924439  -0.22827  -17.738357  2.263503  -11.086928  13.326818  22.166818  0.454113  4.160026  2.253092  -20.167301  16.031875  3.060316  -8.56446  3.997796  17.083482  -3.687457  2.730474  -1.382702  -2.279388  1.16103  2.681329  -6.097932  3.418424  7.218098  -6.097932  3.418424  7.218099  -18.661074  23.50083  4.58171  88.80327  56.114568  171.73751  -28.053566  -16.113321  80.190062  66.94335  -6.239919  -17.671144  22.466916  -16.800619  14.597571  101.43313  48.535533  48.48668  17.580767  21.713294  -20.512134  94.234341  7.449255  -14.803943  -1.885919  -3.775987  -0.638164  -1.417876  -2.830057  -0.490122  
0.0  101.685394  0.0  1.260366  26.239744  -100.184553  0.393923  -17.786576  2.833693  -10.78589  12.664617  22.048727  0.629868  4.196663  2.313257  -20.043472  15.593792  2.596883  -7.753991  4.066841  17.285734  -3.271426  2.807297  -1.299706  -2.210517  1.113427  2.702683  -5.913588  3.283045  7.284109  -5.913589  3.283046  7.28411  -18.535247  23.646364  4.744762  90.681792  56.24748  172.882563  -28.239192  -16.039795  80.538222  66.765264  -5.838609  -17.267098  22.542754  -17.089567  14.511999  103.257523  48.047697  49.245896  16.465138  21.752518  -20.732349  94.06707  8.078882  -14.579487  -1.365988  -3.651923  -0.606556  -1.027774  -2.737607  -0.462938  
0.0  101.685394  0.0  0.952324  24.333597  -100.423849  0.896023  -17.879929  3.417339  -10.200741  12.048531  22.046609  0.970703  4.241337  2.408442  -19.934299  15.139396  2.054294  -6.846703  4.074288  17.482492  -2.813992  2.792409  -1.222492  -2.125649  1.049973  2.722484  -5.687435  3.102406  7.347662  -5.687435  3.102406  7.347662  -18.391559  23.869887  4.95148  93.12272  56.688957  174.459163  -28.208216  -15.770007  80.769018  66.54801  -5.243836  -16.819632  22.552645  -17.248343  14.342358  103.993384  47.703953  49.14587  15.945519  22.104821  -21.092044  93.87331  8.793424  -14.157367  -0.683201  -3.477472  -0.590309  -0.515606  -2.607452  -0.446488  
0.0  101.685394  0.0  0.641858  22.132368  -100.632429  1.219493  -18.019739  3.989033  -9.51899  11.529109  21.982909  1.677763  4.330463  2.67146  -19.858358  14.713259  1.469667  -5.722926  3.988351  17.662564  -2.299361  2.784829  -1.15857  -2.021829  0.989048  2.749618  -5.409077  2.926987  7.431512  -5.409077  2.926987  7.431511  -18.287756  24.000539  5.157253  96.243241  57.148836  176.487522  -28.100804  -15.377739  81.102394  66.357172  -4.539255  -16.370995  22.484529  -17.410481  13.999525  104.032421  47.560684  48.561723  15.821024  22.530432  -21.762293  93.700077  9.586282  -13.600696  0.107919  -3.274742  -0.611423  0.077638  -2.456167  -0.457863  
